<?xml version="1.0" encoding="utf-8"?>
<!-- Generator: Adobe Illustrator 22.0.0, SVG Export Plug-In . SVG Version: 6.00 Build 0)  -->
<svg version="1.1" id="Capa_1" xmlns="http://www.w3.org/2000/svg" xmlns:xlink="http://www.w3.org/1999/xlink" x="0px" y="0px"
	 viewBox="0 0 350 80" enable-background="new 0 0 350 80" xml:space="preserve">
<g>
	<polygon fill="#484848" points="12.9,35.415 39.012,52.576 39.012,46.95 20.99,35.389 39.012,22.572 39.012,16.74 	"/>
	<polyline fill="#484848" points="52.876,61.355 52.876,55.523 70.9,42.706 52.876,31.144 52.876,25.52 78.988,42.68 	"/>
	<g>
		<defs>
			<rect id="SVGID_1_" x="7.26" y="15.018" width="335.48" height="49.965"/>
		</defs>
		<clipPath id="SVGID_2_">
			<use xlink:href="#SVGID_1_"  overflow="visible"/>
		</clipPath>
		<g clip-path="url(#SVGID_2_)">
			<path fill="#FF5A5F" d="M118.317,47.372l3.253,1.709c-1.067,2.095-2.3,3.787-3.698,5.073c-1.398,1.287-2.971,2.266-4.719,2.937
				c-1.748,0.671-3.726,1.006-5.933,1.006c-4.894,0-8.72-1.604-11.48-4.811s-4.14-6.833-4.14-10.877
				c0-3.805,1.168-7.196,3.504-10.174c2.962-3.786,6.926-5.679,11.894-5.679c5.114,0,9.198,1.939,12.252,5.817
				c2.17,2.739,3.274,6.158,3.312,10.256H95.571c0.073,3.484,1.187,6.34,3.34,8.568c2.153,2.228,4.813,3.342,7.978,3.342
				c1.527,0,3.013-0.265,4.458-0.796c1.444-0.531,2.672-1.236,3.685-2.115C116.044,50.751,117.139,49.332,118.317,47.372z
				 M118.317,39.294c-0.515-2.059-1.265-3.704-2.25-4.936c-0.985-1.231-2.287-2.224-3.906-2.978c-1.62-0.753-3.322-1.13-5.106-1.13
				c-2.945,0-5.476,0.947-7.592,2.84c-1.546,1.378-2.715,3.446-3.506,6.204H118.317z"/>
		</g>
		<g clip-path="url(#SVGID_2_)">
			<path fill="#767676" d="M158.878,33.559l-3.061,1.902c-2.644-3.511-6.251-5.266-10.823-5.266c-3.653,0-6.687,1.175-9.102,3.525
				c-2.414,2.35-3.621,5.205-3.621,8.564c0,2.185,0.555,4.242,1.666,6.169c1.11,1.928,2.635,3.424,4.571,4.489
				c1.937,1.064,4.108,1.597,6.513,1.597c4.406,0,8.004-1.755,10.795-5.266l3.061,2.013c-1.434,2.159-3.359,3.834-5.776,5.024
				c-2.417,1.19-5.17,1.786-8.258,1.786c-4.742,0-8.676-1.507-11.8-4.521c-3.125-3.015-4.687-6.681-4.687-11.001
				c0-2.904,0.73-5.601,2.192-8.092c1.461-2.49,3.469-4.434,6.024-5.831c2.554-1.396,5.413-2.095,8.574-2.095
				c1.985,0,3.901,0.303,5.749,0.91c1.848,0.606,3.414,1.397,4.701,2.371C156.883,30.812,157.977,32.052,158.878,33.559z"/>
			<path fill="#767676" d="M165.798,27.328h3.86v14.006c0,3.419,0.184,5.772,0.552,7.058c0.553,1.838,1.606,3.291,3.162,4.356
				s3.41,1.599,5.564,1.599s3.98-0.519,5.481-1.558c1.5-1.038,2.536-2.403,3.106-4.094c0.387-1.158,0.58-3.612,0.58-7.361V27.328
				h3.943v14.723c0,4.136-0.482,7.251-1.449,9.347c-0.964,2.095-2.417,3.736-4.355,4.921c-1.939,1.186-4.37,1.778-7.292,1.778
				c-2.922,0-5.362-0.593-7.32-1.778s-3.419-2.84-4.384-4.963c-0.965-2.123-1.448-5.316-1.448-9.581V27.328z"/>
		</g>
		<g clip-path="url(#SVGID_2_)">
			<path fill="#00A699" d="M230.569,15.748v41.577h-3.805v-5.156c-1.618,1.967-3.433,3.446-5.445,4.439s-4.214,1.489-6.604,1.489
				c-4.246,0-7.871-1.539-10.877-4.618c-3.005-3.079-4.508-6.824-4.508-11.235c0-4.319,1.517-8.014,4.55-11.083
				c3.032-3.069,6.681-4.604,10.945-4.604c2.463,0,4.691,0.523,6.687,1.571c1.994,1.048,3.744,2.619,5.252,4.715V15.748H230.569z
				 M215.144,30.278c-2.148,0-4.131,0.528-5.948,1.584c-1.818,1.056-3.264,2.539-4.338,4.448s-1.611,3.929-1.611,6.058
				c0,2.112,0.542,4.131,1.625,6.059s2.538,3.429,4.365,4.502c1.826,1.075,3.786,1.611,5.88,1.611c2.111,0,4.112-0.533,6.003-1.597
				c1.891-1.065,3.346-2.506,4.365-4.324c1.019-1.817,1.528-3.865,1.528-6.142c0-3.469-1.143-6.371-3.429-8.702
				S218.484,30.278,215.144,30.278z"/>
		</g>
		<g clip-path="url(#SVGID_2_)">
			<path fill="#767676" d="M264.56,47.372l3.254,1.709c-1.067,2.095-2.3,3.787-3.698,5.073c-1.398,1.287-2.971,2.266-4.719,2.937
				s-3.726,1.006-5.934,1.006c-4.894,0-8.72-1.604-11.479-4.811s-4.14-6.833-4.14-10.877c0-3.805,1.168-7.196,3.505-10.174
				c2.961-3.786,6.926-5.679,11.894-5.679c5.114,0,9.198,1.939,12.252,5.817c2.171,2.739,3.274,6.158,3.312,10.256h-26.992
				c0.073,3.484,1.188,6.34,3.341,8.568c2.152,2.228,4.813,3.342,7.978,3.342c1.527,0,3.013-0.265,4.458-0.796
				c1.444-0.531,2.673-1.236,3.685-2.115C262.287,50.751,263.382,49.332,264.56,47.372z M264.56,39.294
				c-0.515-2.059-1.265-3.704-2.25-4.936c-0.984-1.231-2.286-2.224-3.905-2.978c-1.62-0.753-3.322-1.13-5.107-1.13
				c-2.944,0-5.475,0.947-7.591,2.84c-1.547,1.378-2.715,3.446-3.506,6.204H264.56z"/>
			<path fill="#767676" d="M273.162,27.328h4.108l10.069,21.866l9.947-21.866h4.136l-13.73,29.997h-0.717L273.162,27.328z"/>
			<path fill="#767676" d="M322.377,30.609l-2.481,2.564c-2.064-2.003-4.083-3.005-6.054-3.005c-1.254,0-2.327,0.413-3.221,1.24
				s-1.341,1.792-1.341,2.895c0,0.975,0.368,1.902,1.105,2.785c0.736,0.901,2.283,1.958,4.642,3.171
				c2.873,1.489,4.825,2.922,5.857,4.301c1.013,1.397,1.52,2.969,1.52,4.715c0,2.463-0.865,4.549-2.596,6.259
				s-3.894,2.564-6.489,2.564c-1.73,0-3.383-0.377-4.957-1.13c-1.573-0.753-2.876-1.792-3.907-3.116l2.427-2.757
				c1.971,2.224,4.063,3.336,6.273,3.336c1.547,0,2.864-0.496,3.951-1.489s1.631-2.16,1.631-3.501c0-1.103-0.359-2.086-1.077-2.95
				c-0.719-0.845-2.34-1.912-4.863-3.198c-2.708-1.396-4.55-2.775-5.526-4.136c-0.976-1.36-1.464-2.913-1.464-4.659
				c0-2.279,0.777-4.172,2.333-5.68c1.556-1.507,3.521-2.261,5.896-2.261C316.798,26.556,319.578,27.907,322.377,30.609z"/>
		</g>
		<path clip-path="url(#SVGID_2_)" fill="#FF5A5F" d="M337.387,29.073c0,1.927-1.561,3.487-3.486,3.487
			c-1.926,0-3.487-1.561-3.487-3.487c0-1.925,1.561-3.486,3.487-3.486C335.825,25.587,337.387,27.149,337.387,29.073"/>
		<polyline clip-path="url(#SVGID_2_)" fill="#00A699" points="333.482,48.845 337.14,50.637 331.655,60.995 328.911,59.846 		"/>
	</g>
</g>
</svg>
